<svg xmlns="http://www.w3.org/2000/svg" width="85" height="85" viewBox="0 0 85 85">
    <g fill="#7DC0DE">
        <path d="M83.146 79.538c.998 0 1.807-.81 1.807-1.807 0-.998-.81-1.807-1.807-1.807H9.028V1.807C9.028.809 8.22 0 7.222 0S5.415.81 5.415 1.807V77.73c0 .998.81 1.807 1.807 1.807h75.924z"/>
        <path d="M11.502 8.546c.705.706 1.849.706 2.554 0 .706-.705.706-1.849 0-2.554L8.593.529c-.705-.705-1.849-.705-2.554 0l-.01.01L.576 5.992c-.705.705-.705 1.85 0 2.554.706.706 1.85.706 2.555 0l4.185-4.185 4.186 4.185zM76.406 81.917c-.705.705-.705 1.849 0 2.554.706.705 1.85.705 2.555 0l5.463-5.463c.705-.705.705-1.849 0-2.554l-.01-.01-5.453-5.453c-.705-.705-1.85-.705-2.555 0-.705.705-.705 1.85 0 2.554l4.186 4.186-4.186 4.186zM18.113 75.924h9.033v-16.31h-9.033v16.31zm10.84 3.614H16.306c-.998 0-1.807-.81-1.807-1.807V57.807c0-.997.81-1.806 1.807-1.806h12.645c.998 0 1.807.809 1.807 1.806v19.924c0 .998-.809 1.807-1.807 1.807z"/>
        <path d="M41.597 79.538H28.952c-.998 0-1.806-.81-1.806-1.807V46.968c0-.997.808-1.806 1.806-1.806h12.645c.998 0 1.807.809 1.807 1.806v30.763c0 .998-.809 1.807-1.807 1.807zM30.76 75.924h9.032v-27.15h-9.032v27.15z"/>
        <path d="M43.404 75.924h9.032V37.936h-9.032v37.988zm10.84 3.614H41.597c-.998 0-1.807-.81-1.807-1.807V36.13c0-.998.809-1.807 1.807-1.807h12.645c.998 0 1.807.809 1.807 1.807V77.73c0 .998-.81 1.807-1.807 1.807z"/>
        <path d="M66.888 79.538H54.243c-.998 0-1.807-.81-1.807-1.807V23.484c0-.997.81-1.806 1.807-1.806h12.645c.998 0 1.807.809 1.807 1.806v54.247c0 .998-.81 1.807-1.807 1.807zM56.05 75.924h9.033V25.291h-9.033v50.633z"/>
    </g>
</svg>
