<svg xmlns="http://www.w3.org/2000/svg" width="87" height="65" viewBox="0 0 87 65">
    <path fill="#7DC0DE" stroke="#7DC0DE" d="M37.664 45.286c-.086-.062-8.542-5.96-20.745-5.619-.51.014-.944-.371-.971-.882h0c-.028-.525.382-.98.906-.995 12.873-.379 21.525 5.7 21.898 5.967l-1.088 1.529zm0-6.646c-.086-.06-8.542-5.96-20.745-5.618-.51.015-.944-.371-.971-.882h0c-.028-.524.382-.979.906-.994 12.873-.373 21.525 5.7 21.897 5.966l-1.087 1.528zm0-6.644c-.086-.061-8.54-5.962-20.745-5.619-.51.015-.944-.371-.971-.881h0c-.028-.525.382-.98.906-.995 12.873-.375 21.525 5.7 21.897 5.966l-1.087 1.529zm0-6.646c-.086-.061-8.542-5.964-20.745-5.619-.51.015-.944-.37-.972-.881h0c-.028-.525.382-.98.906-.995 12.873-.376 21.526 5.7 21.898 5.966l-1.087 1.529zm0-6.645c-.086-.062-8.542-5.965-20.745-5.619-.51.015-.944-.371-.972-.882h0c-.028-.524.382-.979.906-.994 12.873-.378 21.526 5.7 21.898 5.966l-1.087 1.529zm11.032 26.58l-1.088-1.528c.372-.265 9.028-6.335 21.897-5.965.524.015.934.469.906.993v.001c-.027.51-.46.896-.97.882-12.249-.345-20.66 5.556-20.745 5.617zm0-6.645l-1.088-1.528c.372-.265 9.028-6.336 21.897-5.966.524.015.934.47.906.993h0c-.027.511-.46.897-.97.882-12.227-.35-20.66 5.557-20.745 5.619zm0-6.644l-1.088-1.529c.371-.266 9.022-6.344 21.898-5.966.523.016.934.47.905.994h0c-.027.511-.46.897-.97.882-12.214-.346-20.66 5.558-20.745 5.619zm0-6.647l-1.088-1.528c.372-.265 9.028-6.338 21.897-5.966.524.016.934.47.906.994h0c-.027.51-.46.896-.971.882-12.248-.352-20.659 5.558-20.744 5.618zm0-6.645l-1.088-1.528c.372-.266 9.028-6.331 21.897-5.965.524.014.935.469.906.993h0c-.027.51-.46.897-.97.882-12.249-.349-20.66 5.557-20.745 5.618zM74.94 3.992v3.333h.01V3.992h-.01zm2.82-.422V1.25L76.4 1.205C57.305.575 45.982 7.878 43.238 9.896 40.494 7.888 29.18.586 10.075 1.205l-1.358.046V3.57H1v57.395h36.291c1.105 1.615 3.465 2.722 6.209 2.722 2.744 0 5.113-1.107 6.218-2.722H86V3.57h-8.242zM4.745 57.21V7.325h3.971V51.86l1.442-.047c.16 0 14.845-.309 26.813 5.397H4.746zm36.825-.732C30.52 49.805 16.106 49.054 11.527 49V3.992c17.26-.244 27.693 6.486 30.044 8.176v44.311zm2.81.328V12.534l.018.018c.112-.093 10.826-8.766 30.54-8.56h.01V49c-4.655.065-19.452.826-30.568 7.808zm37.873.404h-32.75c11.959-5.697 26.643-5.397 26.812-5.397l1.442.038V7.325h4.496V57.21z"/>
</svg>
