<svg width="32" height="32" viewBox="0 0 32 32" fill="none" xmlns="http://www.w3.org/2000/svg">
<path d="M14.6681 13.3333H17.3347V19.9999H14.6681V13.3333ZM14.6667 21.3333H17.3334V23.9999H14.6667V21.3333Z" fill="#D96378"/>
<path d="M18.3573 5.60008C17.8933 4.72675 16.9893 4.18408 16 4.18408C15.0107 4.18408 14.1067 4.72675 13.6427 5.60142L3.85868 24.0854C3.64157 24.4913 3.53402 24.9468 3.54665 25.407C3.55928 25.8671 3.69164 26.316 3.93068 26.7094C4.16628 27.1046 4.50087 27.4315 4.90141 27.6578C5.30196 27.8842 5.75461 28.0021 6.21468 28.0001H25.7853C26.7293 28.0001 27.584 27.5174 28.0707 26.7094C28.3093 26.3159 28.4415 25.867 28.4541 25.4069C28.4667 24.9469 28.3594 24.4914 28.1427 24.0854L18.3573 5.60008ZM6.21468 25.3334L16 6.84942L25.792 25.3334H6.21468Z" fill="#D96378"/>
</svg>
