<svg xmlns="http://www.w3.org/2000/svg" width="120" height="102" viewBox="0 0 120 102">
    <g fill="#7DC0DE">
        <g>
            <path d="M30.588 0C38.68 0 46.036.526 51.39 1.376c6.023.956 9.748 2.593 9.748 4.685 0 2.091-3.725 3.729-9.748 4.685-5.353.85-12.71 1.375-20.8 1.375-8.092 0-15.449-.525-20.802-1.375C3.765 9.79.04 8.152.04 6.06c0-2.092 3.725-3.73 9.747-4.685C15.14.526 22.497 0 30.588 0zm20.348 4.213c-5.178-.822-12.37-1.33-20.348-1.33s-15.17.508-20.347 1.33C5.733 4.928 3.307 5.6 3.307 6.06c0 .46 2.426 1.132 6.934 1.848 5.177.822 12.37 1.33 20.347 1.33 7.978 0 15.17-.508 20.348-1.33 4.508-.716 6.933-1.389 6.933-1.848 0-.46-2.425-1.133-6.933-1.848z" transform="translate(0 32.828)"/>
            <path d="M61.137 6.06c0-.795-.65-1.44-1.452-1.44-.802 0-1.453.645-1.453 1.44v13.397c0 .46-2.788 1.133-7.296 1.848-5.178.822-12.37 1.33-20.348 1.33-7.97 0-15.131-.507-20.283-1.328-4.49-.715-7.26-1.388-7.26-1.85 0-.187-.035-.366-.1-.53V6.061c0-.796-.651-1.441-1.453-1.441S.04 5.265.04 6.06v13.397c0 .379.147.723.388.98.975 1.625 4.391 2.906 9.424 3.708 5.326.848 12.652 1.373 20.736 1.373 8.092 0 15.448-.526 20.801-1.376 6.023-.956 9.748-2.593 9.748-4.685V6.061z" transform="translate(0 32.828)"/>
            <path d="M61.137 20.612c0-.796-.65-1.441-1.452-1.441-.802 0-1.453.645-1.453 1.441V34.01c0 .46-2.788 1.132-7.296 1.848-5.178.822-12.37 1.33-20.348 1.33-7.97 0-15.131-.507-20.283-1.328-4.49-.715-7.26-1.388-7.26-1.85 0-.187-.035-.366-.1-.53V20.612c0-.796-.651-1.441-1.453-1.441S.04 19.816.04 20.612V34.01c0 .378.147.723.388.98.975 1.625 4.391 2.905 9.424 3.707 5.326.849 12.652 1.374 20.736 1.374 8.092 0 15.448-.526 20.801-1.376 6.023-.956 9.748-2.594 9.748-4.685V20.612z" transform="translate(0 32.828)"/>
            <path d="M61.137 35.164c0-.796-.65-1.442-1.452-1.442-.802 0-1.453.646-1.453 1.442V48.56c0 .46-2.788 1.132-7.296 1.848-5.178.822-12.37 1.33-20.348 1.33-7.97 0-15.131-.507-20.283-1.328-4.49-.715-7.26-1.388-7.26-1.85 0-.187-.035-.366-.1-.53V35.164c0-.796-.651-1.442-1.453-1.442S.04 34.368.04 35.164V48.56c0 .379.147.723.388.98.975 1.625 4.391 2.906 9.424 3.707 5.326.85 12.652 1.374 20.736 1.374 8.092 0 15.448-.526 20.801-1.376 6.023-.956 9.748-2.593 9.748-4.685V35.164z" transform="translate(0 32.828)"/>
            <path d="M61.137 49.715c0-.796-.65-1.441-1.452-1.441-.802 0-1.453.645-1.453 1.441v13.397c0 .46-2.788 1.132-7.296 1.848-5.178.822-12.37 1.33-20.348 1.33-7.97 0-15.131-.508-20.283-1.328-4.49-.716-7.26-1.389-7.26-1.85 0-.188-.035-.367-.1-.53V49.714c0-.796-.651-1.441-1.453-1.441S.04 48.919.04 49.715v13.397c0 .378.147.723.388.98.975 1.624 4.391 2.905 9.424 3.707 5.326.849 12.652 1.373 20.736 1.373 8.092 0 15.448-.525 20.801-1.375 6.023-.956 9.748-2.594 9.748-4.685V49.715z" transform="translate(0 32.828)"/>
        </g>
        <path d="M61.87 18.827c-.152-.002-.019 0 .075.003v-.001l-.074-.002zm-.025-.046h-.162c-2.567 0-4.891 1.024-6.573 2.678-1.682 1.654-2.723 3.94-2.723 6.465 0 1.747.494 3.376 1.352 4.758.83 1.336 1.999 2.448 3.39 3.218h53.42c1.817-.61 3.382-1.76 4.496-3.256 1.125-1.51 1.79-3.376 1.79-5.4 0-2.524-1.04-4.81-2.723-6.464-1.682-1.655-4.006-2.678-6.573-2.678-1.012 0-1.977.155-2.873.44-.904.288-1.752.714-2.52 1.253-.04.032-.082.061-.126.09-.68.43-1.587.237-2.025-.432l1.232-.78-1.23.777c-.844-1.289-2.005-2.355-3.373-3.089-1.316-.706-2.831-1.107-4.45-1.107-.279 0-.552.011-.82.034-.26.023-.511.054-.756.095-.047.01-.096.018-.145.023-.804.088-1.529-.482-1.618-1.273l1.456-.158-1.453.157c-.358-3.177-1.911-5.998-4.208-8.017-2.268-1.995-5.268-3.208-8.562-3.208-3.548 0-6.76 1.414-9.085 3.7-2.325 2.287-3.763 5.445-3.763 8.935 0 .302.008.573.023.813.016.25.037.479.061.687.023.105.034.215.032.327-.015.796-.682 1.429-1.491 1.414v-.002zm-1.554-3.24c0-4.284 1.766-8.163 4.62-10.97 2.856-2.809 6.8-4.545 11.157-4.545 4.031 0 7.714 1.493 10.508 3.95 2.472 2.174 4.243 5.101 4.939 8.414.219-.012.438-.017.659-.017 2.11 0 4.103.531 5.846 1.467 1.373.737 2.586 1.725 3.575 2.9.686-.376 1.415-.69 2.179-.933 1.194-.38 2.46-.586 3.765-.586 3.375 0 6.432 1.346 8.645 3.522 2.212 2.176 3.58 5.182 3.58 8.502 0 2.652-.876 5.106-2.361 7.099-1.52 2.039-3.68 3.59-6.188 4.368-.157.051-.316.072-.472.07H56.767c-.281 0-.544-.08-.767-.214-1.96-1.014-3.606-2.537-4.756-4.39-1.133-1.826-1.787-3.968-1.787-6.254 0-3.32 1.369-6.326 3.581-8.502 1.906-1.874 4.437-3.132 7.26-3.445-.005-.151-.007-.296-.007-.435z"/>
    </g>
</svg>
