<svg xmlns="http://www.w3.org/2000/svg" width="95" height="73" viewBox="0 0 95 73">
    <g fill="#7DC0DE">
        <path d="M5.866 0h82.222c1.615 0 3.082.654 4.145 1.708 1.062 1.053 1.721 2.508 1.721 4.11v44.66c0 1.603-.66 3.058-1.721 4.111-1.063 1.054-2.53 1.708-4.145 1.708H5.866c-1.615 0-3.082-.654-4.144-1.708C.659 53.536 0 52.081 0 50.48V5.819C0 4.215.66 2.76 1.722 1.707 2.784.654 4.25 0 5.866 0zm82.222 3.883H5.866c-.535 0-1.022.218-1.377.57-.354.352-.574.835-.574 1.365v44.66c0 .53.22 1.014.574 1.366.355.352.842.57 1.377.57h82.222c.535 0 1.022-.218 1.377-.57.354-.352.574-.835.574-1.365V5.819c0-.53-.22-1.014-.574-1.366-.355-.352-.842-.57-1.377-.57z" transform="translate(.523 .96)"/>
        <path d="M43.885 54.363c.004-1.068-.865-1.937-1.942-1.941-1.077-.004-1.953.858-1.958 1.926 0 .039.015 13.604-9.771 13.604-1.081 0-1.958.87-1.958 1.941 0 1.073.877 1.942 1.958 1.942 13.702 0 13.67-17.422 13.671-17.472zM53.969 54.348c-.005-1.068-.881-1.93-1.958-1.926-1.077.004-1.946.873-1.942 1.941 0 .05-.03 17.472 13.671 17.472 1.081 0 1.958-.87 1.958-1.942s-.877-1.941-1.958-1.941c-9.786 0-9.771-13.565-9.771-13.604z" transform="translate(.523 .96)"/>
        <path d="M30.214 67.952c-1.082 0-1.958.87-1.958 1.941 0 1.073.876 1.942 1.958 1.942H63.74c1.08 0 1.957-.87 1.957-1.942s-.876-1.941-1.957-1.941H30.214zM33.868 37.306c.764.758 2.004.758 2.768 0 .764-.758.764-1.987 0-2.745l-6.465-6.413 6.465-6.412c.764-.758.764-1.987 0-2.745-.764-.759-2.004-.759-2.768 0l-7.838 7.774-.01.01c-.765.759-.765 1.988 0 2.746l7.848 7.785zM57.318 34.56c-.764.759-.764 1.988 0 2.746s2.004.758 2.768 0l7.849-7.785c.764-.758.764-1.987 0-2.745l-.011-.011-7.838-7.774c-.764-.759-2.004-.759-2.768 0-.764.758-.764 1.987 0 2.745l6.465 6.412-6.465 6.413zM54.772 18.624c.536-.926.214-2.107-.719-2.64-.933-.531-2.124-.212-2.66.714l-12.21 20.975c-.536.926-.215 2.107.719 2.64.933.531 2.124.212 2.66-.714l12.21-20.975z" transform="translate(.523 .96)"/>
    </g>
</svg>
