<?xml version="1.0" encoding="UTF-8"?>
<svg width="" height="" viewBox="0 0 30 30" version="1.1" xmlns="http://www.w3.org/2000/svg" xmlns:xlink="http://www.w3.org/1999/xlink">
    <!-- Generator: Sketch 63.1 (92452) - https://sketch.com -->
    <title>Gear Icon API Keys</title>
    <desc>Created with Sketch.</desc>
    <g id="Symbols" stroke="none" stroke-width="1" fill="none" fill-rule="evenodd">
        <g id="Side-Nav-API-Stats" transform="translate(-43.000000, -140.000000)" fill="" fill-rule="nonzero">
            <g id="Side-Nav">
                <g id="Gear-Icon-API-Keys" transform="translate(43.000000, 140.000000)">
                    <path d="M15,7.76470588 C11.0105662,7.76470588 7.76470588,11.0105662 7.76470588,15 C7.76470588,18.9894338 11.0105662,22.2352941 15,22.2352941 C18.9894338,22.2352941 22.2352941,18.9894338 22.2352941,15 C22.2352941,11.0105662 18.9894338,7.76470588 15,7.76470588 Z M15,20.4264706 C12.0079246,20.4264706 9.5735294,17.9920754 9.5735294,15 C9.5735294,12.0079246 12.0079246,9.5735294 15,9.5735294 C17.9920754,9.5735294 20.4264706,12.0079246 20.4264706,15 C20.4264706,17.9920754 17.9920754,20.4264706 15,20.4264706 Z" id="Shape"></path>
                    <path d="M29.2941284,11.5841675 L26.9883728,11.0829163 C26.7878723,10.4690552 26.5395355,9.87030029 26.2463379,9.29351807 L27.5228119,7.30796813 C27.7507782,6.95320131 27.700653,6.48742676 27.4026489,6.18942258 L23.8105774,2.59735107 C23.5125732,2.29934695 23.0467987,2.24922182 22.6920319,2.47718813 L20.7064819,3.75366211 C20.1296997,3.46046449 19.5309448,3.21212766 18.9170837,3.01162723 L18.4158325,0.705871582 C18.3263397,0.293884277 17.9615021,0 17.5399017,0 L12.4600983,0 C12.0384979,0 11.6736603,0.293884277 11.5841675,0.705871582 L11.0829163,3.01162723 C10.4690552,3.21212766 9.87030029,3.46046449 9.29351807,3.75366211 L7.30796813,2.47718813 C6.95320131,2.24922182 6.48742676,2.29934695 6.18942258,2.59735107 L2.59735107,6.18942258 C2.29934695,6.48742676 2.24922182,6.95320131 2.47718813,7.30796813 L3.75366211,9.29351807 C3.46046449,9.87030029 3.21212766,10.4690552 3.01162723,11.0829163 L0.705871582,11.5841675 C0.293884277,11.6738892 0,12.0384979 0,12.4600983 L0,17.5399017 C0,17.9615021 0.293884277,18.3261108 0.705871582,18.4158325 L3.01162723,18.9170837 C3.21212766,19.5309448 3.46046449,20.1296997 3.75366211,20.7064819 L2.47718813,22.6920319 C2.24922182,23.0467987 2.29934695,23.5125732 2.59735107,23.8105774 L6.18942258,27.4026489 C6.48742676,27.700653 6.95320131,27.7507782 7.30796813,27.5228119 L9.29351807,26.2463379 C9.87030029,26.5395355 10.4690552,26.7878723 11.0829163,26.9883728 L11.5841675,29.2941284 C11.6736603,29.7061157 12.0384979,30 12.4600983,30 L17.5399017,30 C17.9615021,30 18.3263397,29.7061157 18.4158325,29.2941284 L18.9170837,26.9883728 C19.5309448,26.7878723 20.1296997,26.5395355 20.7064819,26.2463379 L22.6920319,27.5228119 C23.0467987,27.7507782 23.5125732,27.700882 23.8105774,27.4026489 L27.4026489,23.8105774 C27.700653,23.5125732 27.7507782,23.0467987 27.5228119,22.6920319 L26.2463379,20.7064819 C26.5395355,20.1296997 26.7878723,19.5309448 26.9883728,18.9170837 L29.2941284,18.4158325 C29.7061157,18.3261108 30,17.9615021 30,17.5399017 L30,12.4600983 C30,12.0384979 29.7061157,11.6738892 29.2941284,11.5841675 Z M28.2071686,16.8173218 L26.092987,17.2769165 C25.7682038,17.347641 25.5091095,17.5920868 25.4198456,17.9120636 C25.1875305,18.7454224 24.853363,19.5513153 24.4267273,20.307312 C24.2633057,20.5968475 24.2733765,20.9529877 24.4532776,21.2326813 L25.6240082,23.0536652 L23.053894,25.6240082 L21.2326813,24.4532776 C20.9529877,24.2733765 20.5968475,24.2633057 20.3075409,24.4267273 C19.5513153,24.853363 18.7454224,25.1875305 17.9120636,25.4198456 C17.5920868,25.5091095 17.347641,25.7682038 17.2769165,26.092987 L16.8173218,28.2071686 L13.1826782,28.2071686 L12.7230835,26.092987 C12.652359,25.7682038 12.4079132,25.5091095 12.0879364,25.4198456 C11.2545776,25.1875305 10.4486847,24.853363 9.69268799,24.4267273 C9.40315248,24.2633057 9.04701234,24.2736053 8.76731871,24.4532776 L6.94633482,25.6240082 L4.3762207,23.0536652 L5.54672238,21.2326813 C5.72662354,20.9529877 5.7369232,20.5968475 5.5735016,20.307312 C5.14686586,19.5513153 4.81269838,18.7454224 4.58015443,17.9120636 C4.49089049,17.5920868 4.23202512,17.347641 3.90724184,17.2769165 L1.79283141,16.8173218 L1.79283141,13.1826782 L3.90701297,12.7230835 C4.23179625,12.652359 4.49089049,12.4079132 4.58015443,12.0879364 C4.81246945,11.2545776 5.14663699,10.4486847 5.57327273,9.69268799 C5.73669434,9.40315248 5.72662354,9.04701234 5.54672238,8.76731871 L4.37599184,6.94633482 L6.94610596,4.37599184 L8.76731871,5.54672238 C9.04701234,5.72662354 9.40315248,5.73669434 9.69245912,5.57327273 C10.4486847,5.14663699 11.2545776,4.81246945 12.0879364,4.58015443 C12.4079132,4.49089049 12.652359,4.23179625 12.7230835,3.90701297 L13.1826782,1.79283141 L16.8173218,1.79283141 L17.2769165,3.90701297 C17.347641,4.23179625 17.5920868,4.49089049 17.9120636,4.58015443 C18.7454224,4.81246945 19.5513153,5.14663699 20.307312,5.57327273 C20.5968475,5.73669434 20.9529877,5.72639467 21.2326813,5.54672238 L23.0536652,4.37599184 L25.6237793,6.94633482 L24.4532776,8.76731871 C24.2733765,9.04701234 24.2630768,9.40315248 24.4264984,9.69268799 C24.853363,10.4486847 25.1873016,11.2545776 25.4198456,12.0879364 C25.5091095,12.4079132 25.7679749,12.652359 26.0927582,12.7230835 L28.2071686,13.1826782 L28.2071686,16.8173218 Z" id="Shape"></path>
                </g>
            </g>
        </g>
    </g>
</svg>
