<svg xmlns="http://www.w3.org/2000/svg" width="59" height="73" viewBox="0 0 59 73">
    <g fill="none">
        <path fill="#7DC0DE" d="M41.694 13.269L55 13.269 41.694 0z" transform="translate(2 2)"/>
        <path stroke="#7DC0DE" stroke-width="3" d="M39.531 17.25c-.456 0-.893-.181-1.215-.505-.323-.323-.504-.762-.503-1.22V0H1.719C1.263 0 .825.181.503.505.181.828 0 1.267 0 1.725v65.55c0 .458.18.897.503 1.22.322.324.76.505 1.216.505H53.28c.456 0 .894-.181 1.216-.505.322-.323.503-.762.503-1.22V17.25H39.531z" transform="translate(2 2)"/>
        <path fill="#7DC0DE" d="M26.64 41.4c.007 3.358-2.4 6.23-5.697 6.8-3.297.57-6.523-1.33-7.636-4.495-.208-.581-.09-1.229.307-1.699.398-.47 1.015-.691 1.62-.58.604.111 1.104.538 1.309 1.12.552 1.585 2.164 2.538 3.813 2.255 1.65-.284 2.853-1.722 2.847-3.401v-6.9h-3.437c-.95 0-1.72-.772-1.72-1.725 0-.953.77-1.725 1.72-1.725h5.156c.456 0 .893.181 1.216.505.322.323.503.762.503 1.22V41.4zM36.953 37.95c2.848 0 5.156 2.317 5.156 5.175 0 2.858-2.308 5.175-5.156 5.175h-5.156c-.95 0-1.719-.772-1.719-1.725 0-.953.77-1.725 1.719-1.725h5.156c.95 0 1.719-.772 1.719-1.725 0-.953-.77-1.725-1.719-1.725h-1.719c-2.847 0-5.156-2.317-5.156-5.175 0-2.858 2.309-5.175 5.156-5.175h5.157c.949 0 1.718.772 1.718 1.725 0 .953-.77 1.725-1.718 1.725h-5.157c-.949 0-1.718.772-1.718 1.725 0 .953.77 1.725 1.718 1.725h1.72z" transform="translate(2 2)"/>
    </g>
</svg>
