<svg xmlns="http://www.w3.org/2000/svg" width="" height="" viewBox="0 0 28 23">
    <g fill="none">
        <path fill="#7DC0DE" d="M21.376 7.193c2.55 2.55 3.67 7.128 3.36 10.458 1.772-4.23.939-9.293-2.506-12.737C16.544-.77 7.326-.77 1.64 4.914l1.593 1.45c5.774-5 13.215-4.098 18.143.829z" transform="scale(1 -1) rotate(-35 -22.473 -2.172)"/>
        <path fill="#FFF" d="M15.527 24.06c-2.599 0-5.041-1.001-6.878-2.818-2.816-2.785-3.046-7.174-.691-10.222L.935 4.698l.316-.312c5.832-5.769 15.322-5.768 21.154 0 2.276 2.251 3.53 5.244 3.53 8.428 0 3.184-1.254 6.177-3.53 8.428-1.838 1.817-4.28 2.818-6.878 2.818zM13.159 9.238c-1.415 0-2.83.532-3.907 1.598-2.735 2.705-2.735 7.105 0 9.81 1.676 1.658 3.904 2.57 6.275 2.57 2.37 0 4.598-.912 6.274-2.57 2.116-2.092 3.28-4.874 3.28-7.832s-1.164-5.74-3.28-7.831C19.137 2.348 15.595.896 11.828.896c-3.618 0-7.029 1.339-9.653 3.778l6.337 5.704c.045-.046.09-.093.137-.139 2.487-2.46 6.534-2.459 9.02 0 .98.97 1.52 2.258 1.52 3.629 0 1.37-.54 2.659-1.52 3.628-1.65 1.633-4.338 1.633-5.99 0-1.354-1.34-1.354-3.519 0-4.859 1.118-1.104 2.935-1.104 4.051 0 .45.444.696 1.035.696 1.663 0 .628-.247 1.218-.696 1.662-.375.371-.874.575-1.404.575-.53 0-1.03-.204-1.405-.575l.603-.597c.214.212.499.329.802.329.303 0 .588-.117.802-.329.288-.284.446-.663.446-1.065 0-.403-.158-.781-.446-1.066-.784-.776-2.06-.775-2.845 0-1.021 1.01-1.021 2.655 0 3.666 1.32 1.305 3.465 1.304 4.784 0 .82-.81 1.27-1.886 1.27-3.032 0-1.145-.45-2.222-1.27-3.032-1.078-1.065-2.493-1.598-3.908-1.598z" transform="scale(1 -1) rotate(-35 -22.473 -2.172)"/>
    </g>
</svg>
