<?xml version="1.0" encoding="UTF-8"?>
<svg width="167px" height="119px" viewBox="0 0 167 119" version="1.1" xmlns="http://www.w3.org/2000/svg" xmlns:xlink="http://www.w3.org/1999/xlink">
    <!-- Generator: Sketch 56.3 (81716) - https://sketch.com -->
    <title>Combined Shape</title>
    <desc>Created with Sketch.</desc>
    <defs>
        <filter x="-2.8%" y="-6.5%" width="105.5%" height="113.0%" filterUnits="objectBoundingBox" id="filter-1">
            <feOffset dx="0" dy="2" in="SourceAlpha" result="shadowOffsetOuter1"></feOffset>
            <feGaussianBlur stdDeviation="2" in="shadowOffsetOuter1" result="shadowBlurOuter1"></feGaussianBlur>
            <feColorMatrix values="0 0 0 0 0.364705882   0 0 0 0 0.4   0 0 0 0 0.894117647  0 0 0 1 0" type="matrix" in="shadowBlurOuter1" result="shadowMatrixOuter1"></feColorMatrix>
            <feMerge>
                <feMergeNode in="shadowMatrixOuter1"></feMergeNode>
                <feMergeNode in="SourceGraphic"></feMergeNode>
            </feMerge>
        </filter>
    </defs>
    <g id="Nautilus-Cloud-MVP" stroke="none" stroke-width="1" fill="none" fill-rule="evenodd">
        <g id="Nautilus-Cloud-Homepage" transform="translate(-637.000000, -59.000000)" fill="#BABFFF" fill-rule="nonzero">
            <g id="Group-3" transform="translate(360.000000, 61.000000)">
                <g id="Group-15-Copy-3" filter="url(#filter-1)" transform="translate(143.000000, 0.000000)">
                    <path d="M289.008968,51.5736977 C294.162363,58.040093 297,66.1973023 297,74.5442442 C297,94.6455698 280.958952,111 261.240387,111 L167.16496,111 C151.082879,111 138,97.6619302 138,81.2674884 C138,69.5905465 144.810073,58.9526163 155.139944,54.1757442 C155.245089,38.931314 167.44321,26.5638488 182.419984,26.5638488 C185.893621,26.5638488 189.339048,27.2466279 192.547258,28.5541047 C194.930976,20.9725465 199.489403,14.1628256 205.613468,9.11490698 C212.744105,3.23706977 221.731452,0 230.918831,0 C252.621048,0 270.370065,17.5883372 271.171476,39.5172907 C278.132855,41.5707907 284.403097,45.7952442 289.008968,51.5736977 Z M211.65415,43.6900073 C210.575676,43.6910226 209.590531,44.3261721 209.110214,45.3301501 L203.922369,56.1065681 C198.843279,56.8138525 194.217952,58.1487513 190.436186,60.0914238 C187.409212,57.3089989 183.47882,55.5175055 179.082913,55.5175055 C175.909884,55.5175055 172.979625,56.4504349 170.47353,57.9430652 C169.585087,58.4689154 169.036426,59.4500747 169.036426,60.5130061 C169.036426,61.5759374 169.585087,62.5570967 170.47353,63.082947 C173.12381,64.6601438 175.071488,67.2214063 175.850226,70.3018782 L171.884353,70.3018782 C170.858756,70.2868064 169.9048,70.847064 169.387772,71.7681194 C168.870743,72.6891748 168.870743,73.8283306 169.387772,74.7493861 C169.9048,75.6704415 170.858756,76.2306991 171.884353,76.2156273 L175.850226,76.2156273 C175.071488,79.2990561 173.12381,81.8689112 170.47353,83.4461081 C169.585087,83.9719584 169.036426,84.9531176 169.036426,86.016049 C169.036426,87.0789803 169.585087,88.0601396 170.47353,88.5859899 C172.979375,90.0774374 175.909884,91 179.082913,91 C183.47973,91 187.408979,89.2073179 190.436186,86.4260817 C196.080256,89.3261843 203.50412,91 211.698582,91 L217.519639,91 L242.936759,91 C252.340566,91 260,83.0365455 260,73.2587527 C260,63.4815514 252.340566,55.5175055 242.936759,55.5175055 L242.936759,46.6468819 C242.936602,45.0139127 241.663448,43.6901704 240.092885,43.6900073 L228.405138,43.6900073 L228.405138,34.8193837 C228.405138,33.130417 229.624273,31.8625091 231.249012,31.8625091 L233.937359,31.8625091 C234.962957,31.8775809 235.916912,31.3173234 236.433941,30.3962679 C236.95097,29.4752125 236.95097,28.3360567 236.433941,27.4150013 C235.916912,26.4939458 234.962957,25.9336883 233.937359,25.9484635 L231.249012,25.9484635 C226.57167,25.9484635 222.717391,29.9565078 222.717391,34.8193837 L222.717391,43.6900073 L211.65415,43.6900073 Z" id="Combined-Shape"></path>
                </g>
            </g>
        </g>
    </g>
</svg>