<?xml version="1.0" encoding="UTF-8"?>
<svg width="39px" height="27px" viewBox="0 0 39 27" version="1.1" xmlns="http://www.w3.org/2000/svg" xmlns:xlink="http://www.w3.org/1999/xlink">
    <!-- Generator: Sketch 56.3 (81716) - https://sketch.com -->
    <title>Combined Shape</title>
    <desc>Created with Sketch.</desc>
    <g id="Nautilus-Cloud-MVP" stroke="none" stroke-width="1" fill="none" fill-rule="evenodd">
        <g id="TOS-and-PP" transform="translate(-529.000000, -212.000000)" fill="#6872F1" fill-rule="nonzero">
            <g id="Group-17" transform="translate(529.000000, 208.000000)">
                <path d="M37.0399355,16.5449535 C38.3039758,18.1178605 39,20.1020465 39,22.1323837 C39,27.0218953 35.0654032,31 30.2287742,31 L7.15366935,31 C3.20900806,31 0,27.7556047 0,23.7677674 C0,20.9274302 1.67039516,18.3398256 4.2041371,17.1778837 C4.22992742,13.4697791 7.22191935,10.4614767 10.8954677,10.4614767 C11.7474919,10.4614767 12.5925968,10.6275581 13.3795161,10.945593 C13.9642016,9.10143023 15.0823065,7.44501163 16.5844355,6.21713953 C18.3334597,4.78739535 20.5379032,4 22.7914113,4 C28.1145968,4 32.468129,8.27824419 32.6647016,13.612314 C34.3722097,14.111814 35.9101935,15.1393837 37.0399355,16.5449535 Z M18.3119923,14.5309109 C18.0512624,14.531157 17.8130953,14.6851326 17.6969748,14.9285212 L16.4427704,17.5409862 C15.2148586,17.7124491 14.0966476,18.0360609 13.1823745,18.5070118 C12.4505788,17.8324846 11.500374,17.3981831 10.4376274,17.3981831 C9.67052149,17.3981831 8.96210721,17.6243479 8.35623802,17.9861976 C8.14144968,18.1136765 8.00880617,18.3515333 8.00880617,18.6092136 C8.00880617,18.8668939 8.14144968,19.1047507 8.35623802,19.2322296 C8.99696498,19.6145803 9.46783218,20.2354924 9.65609849,20.9822735 L8.69731609,20.9822735 C8.44936951,20.9786197 8.21874296,21.1144398 8.09374698,21.3377259 C7.96875101,21.5610121 7.96875101,21.8371711 8.09374698,22.0604572 C8.21874296,22.2837434 8.44936951,22.4195634 8.69731609,22.4159096 L9.65609849,22.4159096 C9.46783218,23.1634075 8.99696498,23.7864027 8.35623802,24.1687535 C8.14144968,24.2962323 8.00880617,24.5340891 8.00880617,24.7917695 C8.00880617,25.0494498 8.14144968,25.2873066 8.35623802,25.4147854 C8.96204671,25.7763485 9.67052149,26 10.4376274,26 C11.500594,26 12.4505224,25.5654104 13.1823745,24.8911713 C14.5468752,25.5942265 16.3416554,26 18.3227342,26 L19.7300226,26 L25.8748208,26 C28.1482687,26 30,24.0694656 30,21.6990916 C30,19.3288609 28.1482687,17.3981831 25.8748208,17.3981831 L25.8748208,15.2477289 C25.8747829,14.8518576 25.5669875,14.5309504 25.1872909,14.5309109 L22.3616817,14.5309109 L22.3616817,12.3804567 C22.3616817,11.9710102 22.6564175,11.6636386 23.0492116,11.6636386 L23.6991418,11.6636386 C23.9470884,11.6672923 24.177715,11.5314723 24.3027109,11.3081862 C24.4277069,11.0849 24.4277069,10.808741 24.3027109,10.5854549 C24.177715,10.3621687 23.9470884,10.2263487 23.6991418,10.2299305 L23.0492116,10.2299305 C21.9184257,10.2299305 20.986622,11.2015777 20.986622,12.3804567 L20.986622,14.5309109 L18.3119923,14.5309109 Z" id="Combined-Shape"></path>
            </g>
        </g>
    </g>
</svg>