<svg width="16" height="16" viewBox="0 0 16 16" fill="none" xmlns="http://www.w3.org/2000/svg">
<path d="M8 0.00317383C3.58214 0.00317383 0 3.58459 0 8.00156C0 12.4185 3.58214 15.9999 8 15.9999C12.4179 15.9999 16 12.4185 16 8.00156C16 3.58459 12.4179 0.00317383 8 0.00317383ZM12.5714 4.53262L11.8429 5.23069C11.7786 5.2789 11.7482 5.35745 11.7607 5.43422V10.5707C11.7482 10.6492 11.7786 10.7278 11.8429 10.7742L12.5571 11.4723V11.6276H8.97143V11.4794L9.70893 10.7635C9.78214 10.6903 9.78214 10.6689 9.78214 10.56V6.40367L7.72857 11.6098H7.45179L5.0625 6.40367V9.89404C5.04107 10.0404 5.09286 10.1886 5.19643 10.294L6.15714 11.4562V11.6115H3.42857V11.4562L4.38929 10.294C4.4399 10.2417 4.47757 10.1783 4.49928 10.1088C4.52099 10.0394 4.52612 9.96583 4.51429 9.89404V5.85914C4.52679 5.74666 4.48393 5.63775 4.39821 5.56098L3.54464 4.53262V4.37729H6.19643L8.24286 8.86746L10.0446 4.38086H12.5714V4.53262Z" fill="white"/>
</svg>
