<svg xmlns="http://www.w3.org/2000/svg" width="15" height="16" viewBox="0 0 15 16">
    <path fill="#FFF" d="M1.484.235c.357 0 .65.293.65.65v2.89C3.496 2.184 5.51 1.209 7.685 1.209c4.026 0 7.306 3.28 7.306 7.306 0 4.027-3.28 7.306-7.306 7.306-1.884 0-3.67-.714-5-1.98-.26-.26-.26-.65-.033-.91.26-.26.65-.26.909-.032 1.104 1.071 2.598 1.623 4.124 1.623 3.312 0 6.007-2.695 6.007-6.007s-2.695-6.007-6.007-6.007c-2.143 0-4.092 1.137-5.163 2.923h4.156c.357 0 .65.292.65.649 0 .357-.293.65-.65.65H1.42h-.033c-.292-.066-.552-.325-.552-.65V.885c0-.357.293-.65.65-.65z"/>
</svg>
