<svg width="16" height="16" viewBox="0 0 16 16" fill="none" xmlns="http://www.w3.org/2000/svg">
<path fill-rule="evenodd" clip-rule="evenodd" d="M8 15.9999C12.4183 15.9999 16 12.4189 16 8.00156C16 3.58417 12.4183 0.00317383 8 0.00317383C3.58172 0.00317383 0 3.58417 0 8.00156C0 12.4189 3.58172 15.9999 8 15.9999ZM5.17651 4.21276C5.37657 4.07861 5.61496 4.00547 5.85994 4.00307L5.89551 4.00457H8.31884C9.97524 4.00457 11.3337 5.28173 11.3337 6.85806C11.3342 7.28064 11.2358 7.69806 11.0455 8.08012C10.8551 8.46219 10.5777 8.79935 10.2332 9.06723L11.0702 10.2024C11.1612 10.325 11.2258 10.4635 11.2601 10.6099C11.2944 10.7563 11.2978 10.9077 11.2701 11.0553C11.2425 11.203 11.1842 11.3439 11.0988 11.4701C11.0134 11.5963 10.9025 11.7052 10.7725 11.7905C10.643 11.8768 10.4969 11.938 10.3424 11.9704C10.188 12.0029 10.0283 12.006 9.87253 11.9796C9.71678 11.9533 9.56809 11.8979 9.435 11.8168C9.30192 11.7356 9.18708 11.6303 9.09711 11.5068L7.77426 9.71306H7.11824V10.8573C7.11824 11.4911 6.57893 12.0015 5.9121 12.0015C5.24528 12.0015 4.70597 11.4911 4.70597 10.8573V5.43669L4.7086 5.44444C4.64409 5.21763 4.6548 4.97747 4.73928 4.75664C4.82376 4.53581 4.9779 4.34503 5.18073 4.21026L5.17651 4.21276ZM8.31884 4.29199H6.6722L6.67325 4.29324C6.74313 4.35231 6.80571 4.41872 6.85978 4.49119L6.85715 4.48719C6.87811 4.51589 6.8978 4.54541 6.91616 4.57567H8.31858C8.8103 4.57571 9.29018 4.71875 9.69356 4.9855C10.0969 5.25224 10.4044 5.62988 10.5746 6.06752C10.7449 6.50499 10.7698 6.98147 10.646 7.43278C10.5221 7.88408 10.2553 8.28852 9.88171 8.59161L10.0422 8.8078C10.3334 8.57091 10.5683 8.27807 10.7313 7.94863C10.8943 7.6192 10.9817 7.26068 10.9877 6.8968C11.0112 5.48043 9.81189 4.31424 8.31884 4.29199ZM7.03927 4.85834C7.06411 4.95105 7.07675 5.04634 7.07688 5.14202H8.31884C9.96944 5.14327 10.7572 7.06876 9.53868 8.12698L9.71019 8.35992C9.93554 8.17243 10.116 7.94141 10.2396 7.68235C10.3631 7.42328 10.4269 7.14216 10.4266 6.85781C10.4266 5.7526 9.48388 4.85834 8.31884 4.85834H7.03927ZM7.041 5.43119L7.03973 5.43869C7.01101 5.53891 6.96991 5.63264 6.91906 5.71461H8.31331C8.63365 5.72209 8.93785 5.84951 9.15949 6.06904C9.38114 6.28857 9.5022 6.58238 9.49626 6.88631C9.49028 7.16817 9.3738 7.43781 9.16957 7.64261C9.20515 7.67883 9.23774 7.7176 9.26705 7.75858L9.35346 7.87454C9.62812 7.61293 9.78589 7.26095 9.79397 6.8918C9.79849 6.70395 9.76388 6.51709 9.69214 6.34194C9.6204 6.1668 9.51294 6.0068 9.3759 5.87112C9.23887 5.73543 9.07497 5.62673 8.89358 5.55124C8.71219 5.47575 8.51688 5.43496 8.31884 5.43119H7.041ZM5.30271 6.155C5.19496 6.09914 5.0965 6.02848 5.01053 5.9453V10.8565C5.05031 11.959 6.77521 11.959 6.81368 10.8565V9.42988H7.5656L7.3514 9.14096H6.5157V10.8515C6.51043 11.1732 6.24012 11.4296 5.91342 11.4296C5.83409 11.4297 5.75552 11.415 5.68221 11.3862C5.6089 11.3574 5.54229 11.3153 5.4862 11.262C5.4301 11.2088 5.38563 11.1456 5.35532 11.0761C5.32501 11.0065 5.30946 10.932 5.30956 10.8568V6.1575L5.30271 6.155ZM8.31911 5.99729H6.81368L6.81394 7.71834H7.32453C7.41612 7.60579 7.52862 7.51008 7.6565 7.43591H7.11297V6.28646H8.31911C8.39903 6.28637 8.47819 6.3012 8.55207 6.33012C8.62595 6.35905 8.6931 6.40149 8.74968 6.45503C8.80627 6.50858 8.85119 6.57217 8.88187 6.64218C8.91255 6.71219 8.92839 6.78724 8.9285 6.86306C8.92868 6.95514 8.9053 7.04589 8.86037 7.12751C8.81545 7.20913 8.75032 7.2792 8.67057 7.33169C8.77319 7.36454 8.87061 7.41054 8.96011 7.4684C9.12478 7.31344 9.22621 7.09725 9.22621 6.85781C9.22666 6.74469 9.20351 6.6326 9.15808 6.528C9.11266 6.4234 9.04586 6.32837 8.96154 6.24837C8.87721 6.16838 8.77704 6.10501 8.66678 6.06192C8.55652 6.01883 8.43836 5.99686 8.31911 5.99729ZM6.51043 8.00876V6.11851L6.51438 6.11576C6.42375 6.16924 6.32495 6.21223 6.21113 6.24473V8.29118H7.08531C7.09638 8.19467 7.11992 8.09982 7.15539 8.00876H6.51043ZM5.87654 6.29021C5.78169 6.29021 5.68974 6.28097 5.60886 6.26147L5.60938 10.8633C5.6098 10.9008 5.61801 10.9379 5.63354 10.9724C5.64908 11.0069 5.67164 11.0382 5.69993 11.0644C5.72821 11.0906 5.76168 11.1113 5.7984 11.1253C5.83513 11.1392 5.87439 11.1461 5.91395 11.1457C5.99318 11.143 6.06829 11.1115 6.12372 11.0577C6.17914 11.0039 6.21063 10.932 6.21166 10.8568V8.85729H7.17488C7.1322 8.76481 7.10612 8.67108 7.0911 8.57486H5.91368V6.29021H5.87654ZM8.31357 6.56889H7.412V7.14674L8.31911 7.15199C8.48904 7.15199 8.61814 7.01927 8.61814 6.85781C8.61814 6.69786 8.48245 6.56889 8.31357 6.56889Z" fill="white"/>
</svg>
