<svg xmlns="http://www.w3.org/2000/svg" width="75" height="72" viewBox="0 0 75 72">
    <g fill="none">
        <path fill="#7DC0DE" d="M69.375 0c-3.107 0-5.625 2.537-5.625 5.667v9.444h9.375c1.036 0 1.875-.846 1.875-1.889V5.667C75 2.537 72.482 0 69.375 0zM45 56.667H1.875c-.497 0-.974.198-1.326.553-.352.354-.549.834-.549 1.336v1.888C0 64.617 3.358 68 7.5 68h39.422c-1.24-1.626-1.915-3.617-1.922-5.667v-5.666z" transform="translate(0 2)"/>
        <path stroke="#7DC0DE" stroke-width="3" d="M7.5 7.556v45.333h39.375c1.036 0 1.875.846 1.875 1.889v7.555c0 3.13 2.518 5.667 5.625 5.667S60 65.463 60 62.333V5.667c.007-2.05.682-4.041 1.922-5.667H15c-1.99 0-3.897.796-5.303 2.213C8.29 3.63 7.5 5.552 7.5 7.556z" transform="translate(0 2)"/>
        <path fill="#7DC0DE" d="M41.8 22.114c-.715-.74-.707-1.922.018-2.652.725-.73 1.898-.739 2.633-.019l5.625 5.667c.732.737.732 1.933 0 2.67l-5.625 5.667c-.472.489-1.167.684-1.821.51-.654-.173-1.165-.687-1.337-1.346-.172-.659.022-1.36.506-1.834l4.3-4.332-4.3-4.33zM28.198 39.147l7.5-26.442c.184-.649.697-1.15 1.347-1.313.65-.164 1.336.034 1.802.518.465.485.639 1.183.455 1.832l-7.5 26.446c-.23.81-.965 1.37-1.802 1.369-.175 0-.349-.025-.516-.074-.479-.138-.883-.461-1.124-.9-.242-.437-.3-.954-.162-1.436zM17.424 25.11l5.625-5.667c.735-.72 1.908-.712 2.633.019.725.73.733 1.912.019 2.652l-4.3 4.331 4.3 4.332c.484.474.678 1.175.506 1.834-.172.659-.683 1.173-1.337 1.347-.654.173-1.35-.022-1.82-.51l-5.626-5.667c-.732-.738-.732-1.934 0-2.671z" transform="translate(0 2)"/>
    </g>
</svg>
