<?xml version="1.0" encoding="UTF-8"?>
<svg width="52px" height="59px" viewBox="0 0 52 59" version="1.1" xmlns="http://www.w3.org/2000/svg" xmlns:xlink="http://www.w3.org/1999/xlink">
    <!-- Generator: Sketch 56.3 (81716) - https://sketch.com -->
    <title>noun_Install_899574</title>
    <desc>Created with Sketch.</desc>
    <g id="Nautilus-Cloud-MVP" stroke="none" stroke-width="1" fill="none" fill-rule="evenodd">
        <g id="Nautilus-Cloud-Dashboard" transform="translate(-820.000000, -571.000000)" fill="#7D80D5" fill-rule="nonzero">
            <g id="Group-15" transform="translate(258.000000, 460.000000)">
                <g id="Group-12" transform="translate(3.000000, 88.000000)">
                    <g id="Group-6" transform="translate(516.333333, 0.000000)">
                        <g id="noun_Install_899574" transform="translate(43.000000, 23.000000)">
                            <path d="M0,21.6601179 L0,53.3398821 C0,56.4656189 2.50819672,59 5.6852459,59 L45.3147541,59 C48.4081967,59 51,56.4656189 51,53.3398821 L51,21.6601179 C51,18.5343811 48.4918033,16 45.3147541,16 L33.8606557,16 L33.8606557,20.2239686 L45.3147541,20.2239686 C46.1508197,20.2239686 46.8196721,20.8998035 46.8196721,21.6601179 L46.8196721,53.3398821 C46.8196721,54.1846758 46.1508197,54.7760314 45.3147541,54.7760314 L5.6852459,54.7760314 C4.84918033,54.7760314 4.18032787,54.1001965 4.18032787,53.3398821 L4.18032787,21.6601179 C4.18032787,20.8153242 4.84918033,20.2239686 5.6852459,20.2239686 L15.4672131,20.2239686 L15.4672131,16 L5.6852459,16 C2.50819672,16 0,18.5343811 0,21.6601179 Z" id="Path"></path>
                            <path d="M23.0165289,0 L23.0165289,32.3741935 L17.7272727,27.7612903 L15,30.9483871 L23.677686,38.4967742 C24.0909091,38.8322581 24.5041322,39 25,39 C25.4958678,39 25.9917355,38.8322581 26.322314,38.4967742 L35,30.9483871 L32.2727273,27.7612903 L27.1487603,32.3741935 L27.1487603,0 L23.0165289,0 Z" id="Path"></path>
                        </g>
                    </g>
                </g>
            </g>
        </g>
    </g>
</svg>