<?xml version="1.0" encoding="UTF-8"?>
<svg width="57px" height="65px" viewBox="0 0 57 65" version="1.1" xmlns="http://www.w3.org/2000/svg" xmlns:xlink="http://www.w3.org/1999/xlink">
    <!-- Generator: Sketch 56.3 (81716) - https://sketch.com -->
    <title>noun_Project_2292684</title>
    <desc>Created with Sketch.</desc>
    <g id="Nautilus-Cloud-MVP" stroke="none" stroke-width="1" fill="none" fill-rule="evenodd">
        <g id="Nautilus-Cloud-Dashboard" transform="translate(-544.000000, -569.000000)" fill="#7D80D5" fill-rule="nonzero">
            <g id="Group-15" transform="translate(258.000000, 460.000000)">
                <g id="Group-12" transform="translate(3.000000, 88.000000)">
                    <g id="Group-5" transform="translate(221.666667, 0.000000)">
                        <g id="noun_Project_2292684" transform="translate(62.000000, 21.000000)">
                            <path d="M56,16.8781264 C56,16.8781264 56,16.7598909 56,16.8781264 C56,16.7598909 56,16.7598909 56,16.6416553 C56,16.5234197 55.8828452,16.4051842 55.8828452,16.2869486 L55.8828452,16.2869486 C55.8828452,16.2869486 55.8828452,16.2869486 55.8828452,16.2869486 C55.7656904,16.1687131 55.7656904,16.0504775 55.6485356,15.9322419 C55.6485356,15.9322419 55.6485356,15.9322419 55.5313808,15.8140064 C55.5313808,15.8140064 55.5313808,15.8140064 55.4142259,15.8140064 L28.5857741,0.0886766712 C28.5857741,0.0886766712 28.5857741,0.0886766712 28.4686192,0.0886766712 C28.4686192,0.0886766712 28.3514644,0.0886766712 28.3514644,0.0886766712 C28.1171548,-0.0295588904 27.7656904,-0.0295588904 27.5313808,0.0886766712 C27.5313808,0.0886766712 27.4142259,0.0886766712 27.4142259,0.0886766712 C27.4142259,0.0886766712 27.2970711,0.0886766712 27.2970711,0.0886766712 L0.585774059,15.8140064 C0.585774059,15.8140064 0.585774059,15.8140064 0.468619247,15.8140064 C0.468619247,15.8140064 0.468619247,15.8140064 0.351464435,15.9322419 C0.117154812,16.1687131 0,16.4051842 0,16.6416553 C0,16.6416553 0,16.7598909 0,16.7598909 C0,16.7598909 0,16.8781264 0,16.8781264 L0,48.2105503 C0,48.2105503 0,48.3287858 0,48.3287858 C0,48.3287858 0,48.4470214 0,48.4470214 C0,48.5652569 0.117154812,48.6834925 0.117154812,48.8017281 C0.117154812,48.8017281 0.117154812,48.8017281 0.117154812,48.8017281 C0.117154812,48.8017281 0.117154812,48.8017281 0.117154812,48.8017281 C0.117154812,48.9199636 0.234309623,48.9199636 0.351464435,49.0381992 C0.351464435,49.0381992 0.468619247,49.1564347 0.468619247,49.1564347 C0.468619247,49.1564347 0.468619247,49.1564347 0.585774059,49.2746703 L0.585774059,49.2746703 C0.585774059,49.2746703 0.585774059,49.2746703 0.585774059,49.2746703 L27.4142259,64.8817644 C27.4142259,64.8817644 27.4142259,64.8817644 27.5313808,64.8817644 C27.5313808,64.8817644 27.6485356,64.8817644 27.6485356,64.8817644 C27.7656904,64.8817644 27.8828452,65 28,65 C28.1171548,65 28.2343096,65 28.3514644,64.8817644 C28.3514644,64.8817644 28.4686192,64.8817644 28.4686192,64.8817644 C28.4686192,64.8817644 28.4686192,64.8817644 28.5857741,64.8817644 L55.4142259,49.2746703 C55.4142259,49.2746703 55.4142259,49.2746703 55.4142259,49.2746703 L55.4142259,49.2746703 C55.4142259,49.2746703 55.4142259,49.2746703 55.5313808,49.1564347 C55.5313808,49.1564347 55.6485356,49.0381992 55.6485356,49.0381992 C55.7656904,48.9199636 55.8828452,48.6834925 56,48.4470214 C56,48.4470214 56,48.3287858 56,48.3287858 C56,48.3287858 56,48.2105503 56,48.2105503 L56,16.8781264 L56,16.8781264 Z M2.34309623,18.888131 L13.3556485,25.2728513 L13.3556485,39.6975898 L2.34309623,46.0823101 L2.34309623,18.888131 Z M15.6987448,26.691678 L26.8284519,33.1946339 L26.8284519,46.2005457 L15.6987448,39.6975898 L15.6987448,26.691678 Z M28,18.1787176 L39.1297071,24.6816735 L28,31.1846294 L16.8702929,24.6816735 L28,18.1787176 Z M29.1715481,33.1946339 L40.3012552,26.691678 L40.3012552,39.6975898 L29.1715481,46.2005457 L29.1715481,33.1946339 Z M41.4728033,23.2628467 L29.1715481,16.0504775 L29.1715481,3.16280127 L52.4853556,16.8781264 L41.4728033,23.2628467 Z M26.8284519,16.0504775 L14.5271967,23.2628467 L3.51464435,16.8781264 L26.8284519,3.16280127 L26.8284519,16.0504775 Z M14.5271967,41.8258299 L26.8284519,48.9199636 L26.8284519,61.8076398 L3.51464435,48.2105503 L14.5271967,41.8258299 Z M29.1715481,48.9199636 L41.4728033,41.8258299 L52.4853556,48.2105503 L29.1715481,61.8076398 L29.1715481,48.9199636 Z M42.6443515,39.6975898 L42.6443515,25.2728513 L53.6569038,18.888131 L53.6569038,46.0823101 L42.6443515,39.6975898 Z" id="Shape"></path>
                            <path d="M39.3825004,51.7385233 L32.9162047,48.1677706 C32.2944455,47.8106954 31.5483344,48.0487455 31.1752789,48.643871 C30.8022234,49.2389964 31.050927,49.953147 31.6726863,50.3102222 L38.138982,53.8809749 C38.3876857,54 38.5120375,54 38.7607412,54 C39.1337967,54 39.6312041,53.7619498 39.8799078,53.4048746 C40.1286115,52.8097491 40.0042596,52.0955986 39.3825004,51.7385233 Z" id="Path"></path>
                            <path d="M36.4417927,54.5894162 L32.7322107,52.1788323 C32.1701528,51.7982138 31.4956833,52.0519595 31.1584486,52.6863237 C30.8212139,53.3206878 31.046037,54.0819248 31.6080949,54.4625433 L35.317677,56.8731272 C35.5425001,57 35.6549117,57 35.8797348,57 C36.2169696,57 36.6666159,56.7462543 36.891439,56.3656358 C37.1162622,55.7312717 37.0038506,54.9700347 36.4417927,54.5894162 Z" id="Path"></path>
                        </g>
                    </g>
                </g>
            </g>
        </g>
    </g>
</svg>