<?xml version="1.0" encoding="UTF-8"?>
<svg width="54px" height="48px" viewBox="0 0 54 48" version="1.1" xmlns="http://www.w3.org/2000/svg" xmlns:xlink="http://www.w3.org/1999/xlink">
    <!-- Generator: Sketch 56.3 (81716) - https://sketch.com -->
    <title>noun_tutorial_70354</title>
    <desc>Created with Sketch.</desc>
    <g id="Nautilus-Cloud-MVP" stroke="none" stroke-width="1" fill="none" fill-rule="evenodd">
        <g id="Nautilus-Cloud-Dashboard" transform="translate(-1078.000000, -578.000000)" fill="#7D80D5" fill-rule="nonzero">
            <g id="Group-15" transform="translate(258.000000, 460.000000)">
                <g id="Group-12" transform="translate(3.000000, 88.000000)">
                    <g id="Group-7" transform="translate(768.000000, 0.000000)">
                        <g id="noun_tutorial_70354" transform="translate(49.000000, 30.000000)">
                            <circle id="Oval" cx="4.5" cy="4.5" r="4.5"></circle>
                            <circle id="Oval" cx="49.5" cy="5.5" r="4.5"></circle>
                            <circle id="Oval" cx="4.5" cy="43.5" r="4.5"></circle>
                            <circle id="Oval-Copy-4" cx="49.5" cy="43.5" r="4.5"></circle>
                            <g id="Group" transform="translate(8.000000, 1.000000)">
                                <rect id="Rectangle" x="0.731666667" y="2.8992" width="31.5966667" height="1.8976"></rect>
                                <polygon id="Path" points="28.3233333 7.064 31.6766667 3.848 28.3233333 0.632 31.1683333 0.632 34.5183333 3.848 31.1683333 7.064"></polygon>
                            </g>
                            <g id="Group" transform="translate(8.000000, 40.000000)">
                                <rect id="Rectangle" x="0.603764706" y="2.4368" width="32" height="1.8976"></rect>
                                <polygon id="Path" points="28.7150588 6.6016 32.0289412 3.3872 28.7167059 0.1696 31.5265882 0.1712 34.8371765 3.3872 31.5265882 6.6016"></polygon>
                            </g>
                            <g id="Group" transform="translate(11.000000, 7.000000)">
                                <polygon id="Path" points="2.686 33.1852727 1.42208696 31.7027273 35.1082609 0.264909091 36.3738261 1.74745455"></polygon>
                                <polygon id="Path" points="2.86608696 27.4187273 2.47121739 32.0545455 7.15182609 32.444 4.9973913 34.2456364 0.316782609 33.8545455 0.711652174 29.2203636"></polygon>
                            </g>
                        </g>
                    </g>
                </g>
            </g>
        </g>
    </g>
</svg>