<?xml version="1.0" encoding="UTF-8"?>
<svg width="41px" height="52px" viewBox="0 0 41 52" version="1.1" xmlns="http://www.w3.org/2000/svg" xmlns:xlink="http://www.w3.org/1999/xlink">
    <!-- Generator: Sketch 56.3 (81716) - https://sketch.com -->
    <title>Shape</title>
    <desc>Created with Sketch.</desc>
    <g id="Nautilus-Cloud-MVP" stroke="none" stroke-width="1" fill="none" fill-rule="evenodd">
        <g id="Nautilus-Cloud-Dashboard" transform="translate(-296.000000, -577.000000)" fill="#7D80D5" fill-rule="nonzero">
            <g id="Group-15" transform="translate(258.000000, 460.000000)">
                <g id="Group-12" transform="translate(3.000000, 88.000000)">
                    <g id="Group-11">
                        <g id="noun_Key_2594725" transform="translate(27.000000, 24.000000)">
                            <path d="M39.656619,35.9717357 L39.656619,43.1017357 L30.7851904,43.1017357 L30.7851904,46.6667357 L39.656619,46.6667357 L39.656619,53.7967357 L30.7851904,53.7967357 L30.7851904,57.3617357 L23.6880475,57.3617357 L23.6880475,26.5424435 C18.4864068,24.9892727 14.8166191,20.157562 14.8166191,14.5817357 C14.8166191,7.69060268 20.3772425,2.10423564 27.236619,2.10423564 C34.0959956,2.10423564 39.656619,7.69060268 39.656619,14.5817357 C39.656619,20.157562 35.9868314,24.9892727 30.7851904,26.5424435 L30.7851904,35.9717357 L39.656619,35.9717357 Z M37.8823333,37.7542357 L29.0109047,37.7542357 L29.0109047,25.152703 L29.6941019,24.990573 C34.4583289,23.8599705 37.8823333,19.5674964 37.8823333,14.5817357 C37.8823333,8.67505025 33.1160846,3.88673565 27.236619,3.88673565 C21.3571533,3.88673565 16.5909047,8.67505025 16.5909047,14.5817357 C16.5909047,19.5674964 20.0149092,23.8599705 24.7791362,24.990573 L25.4623333,25.152703 L25.4623333,55.5792357 L29.0109047,55.5792357 L29.0109047,52.0142357 L37.8823333,52.0142357 L37.8823333,48.4492357 L29.0109047,48.4492357 L29.0109047,41.3192357 L37.8823333,41.3192357 L37.8823333,37.7542357 Z M27.236619,21.7117357 C23.3169752,21.7117357 20.1394761,18.5195259 20.1394761,14.5817357 C20.1394761,10.6439454 23.3169752,7.45173565 27.236619,7.45173565 C31.1562627,7.45173565 34.3337618,10.6439454 34.3337618,14.5817357 C34.3337618,18.5195259 31.1562627,21.7117357 27.236619,21.7117357 Z M27.236619,19.9292357 C30.1763519,19.9292357 32.5594761,17.5350783 32.5594761,14.5817357 C32.5594761,11.6283929 30.1763519,9.23423565 27.236619,9.23423565 C24.2968862,9.23423565 21.9137618,11.6283929 21.9137618,14.5817357 C21.9137618,17.5350783 24.2968862,19.9292357 27.236619,19.9292357 Z" id="Shape" transform="translate(27.236619, 29.732986) rotate(36.000000) translate(-27.236619, -29.732986) "></path>
                        </g>
                    </g>
                </g>
            </g>
        </g>
    </g>
</svg>