<?xml version="1.0" encoding="UTF-8"?>
<svg width="24px" height="20px" viewBox="0 0 24 20" version="1.1" xmlns="http://www.w3.org/2000/svg" xmlns:xlink="http://www.w3.org/1999/xlink">
    <!-- Generator: Sketch 56.3 (81716) - https://sketch.com -->
    <title>t</title>
    <desc>Created with Sketch.</desc>
    <g id="Nautilus-Cloud-MVP" stroke="none" stroke-width="1" fill="none" fill-rule="evenodd">
        <g id="Nautilus-Cloud-Dashboard" transform="translate(-1109.000000, -1048.000000)" fill="#FFFFFF" fill-rule="nonzero">
            <path d="M1130.53292,1053.11171 C1130.54817,1053.32489 1130.54817,1053.53816 1130.54817,1053.75134 C1130.54817,1060.25382 1125.59897,1067.7462 1116.55327,1067.7462 C1113.76645,1067.7462 1111.17767,1066.93907 1109,1065.53814 C1109.39596,1065.58377 1109.77664,1065.59902 1110.1878,1065.59902 C1112.48724,1065.59902 1114.60402,1064.82238 1116.2944,1063.49752 C1114.13198,1063.45179 1112.31979,1062.03556 1111.6954,1060.08632 C1112,1060.132 1112.30454,1060.16245 1112.62438,1060.16245 C1113.06598,1060.16245 1113.50763,1060.10152 1113.91875,1059.99495 C1111.66496,1059.53806 1109.97458,1057.55842 1109.97458,1055.16757 L1109.97458,1055.10669 C1110.62936,1055.47216 1111.39085,1055.70059 1112.19788,1055.73098 C1110.87303,1054.84773 1110.00506,1053.34014 1110.00506,1051.63456 C1110.00506,1050.72086 1110.24864,1049.8833 1110.67509,1049.15234 C1113.09638,1052.13709 1116.736,1054.08629 1120.81714,1054.29951 C1120.74102,1053.93404 1120.69533,1053.55336 1120.69533,1053.17264 C1120.69533,1050.462 1122.88824,1048.25389 1125.61408,1048.25389 C1127.03035,1048.25389 1128.30948,1048.84779 1129.20802,1049.80717 C1130.31965,1049.59399 1131.3856,1049.18283 1132.32982,1048.61937 C1131.9643,1049.76153 1131.18766,1050.72091 1130.1674,1051.33001 C1131.15727,1051.22344 1132.11664,1050.94929 1132.99985,1050.56861 C1132.32992,1051.54319 1131.4923,1052.4112 1130.53292,1053.11171 Z" id="t"></path>
        </g>
    </g>
</svg>