<?xml version="1.0" encoding="UTF-8"?>
<svg width="28px" height="21px" viewBox="0 0 28 21" version="1.1" xmlns="http://www.w3.org/2000/svg" xmlns:xlink="http://www.w3.org/1999/xlink">
    <!-- Generator: Sketch 56.3 (81716) - https://sketch.com -->
    <title>m</title>
    <desc>Created with Sketch.</desc>
    <g id="Nautilus-Cloud-MVP" stroke="none" stroke-width="1" fill="none" fill-rule="evenodd">
        <g id="Nautilus-Cloud-Homepage" transform="translate(-1377.000000, -1453.000000)" fill="#FFFFFF" fill-rule="nonzero">
            <path d="M1380.91015,1457.28206 C1380.94294,1456.95944 1380.81717,1456.63676 1380.57658,1456.41801 L1378.11014,1453.443 L1378.11014,1453.00005 L1385.77732,1453.00005 L1391.70546,1465.99925 L1396.91715,1453.00005 L1404.22886,1453.00005 L1404.22886,1453.443 L1402.1179,1455.46643 C1401.93744,1455.60315 1401.84446,1455.83285 1401.88275,1456.0571 L1401.88275,1470.93206 C1401.84446,1471.15626 1401.93744,1471.38595 1402.1179,1471.52267 L1404.17962,1473.54611 L1404.17962,1473.98905 L1393.80542,1473.98905 L1393.80542,1473.54611 L1395.94373,1471.47343 C1396.15153,1471.26563 1396.15153,1471.2 1396.15153,1470.88282 L1396.15153,1458.86255 L1390.207,1473.95076 L1389.40308,1473.95076 L1382.49063,1458.86255 L1382.49063,1468.97421 C1382.43045,1469.40081 1382.57266,1469.82736 1382.87344,1470.13359 L1385.65155,1473.50237 L1385.65155,1473.94531 L1377.77657,1473.94531 L1377.77657,1473.50781 L1380.55468,1470.13359 C1380.85001,1469.82736 1380.98673,1469.39531 1380.91015,1468.97421 L1380.91015,1457.28206 Z" id="m"></path>
        </g>
    </g>
</svg>