<svg width="11" height="16" viewBox="0 0 11 16" fill="none" xmlns="http://www.w3.org/2000/svg">
<path fill-rule="evenodd" clip-rule="evenodd" d="M7.10855 16C6.03707 16 5.25612 15.731 4.76569 15.176C4.27526 14.6209 4.03804 14.0401 4.03804 13.3991C4.03804 13.1731 4.07802 12.9728 4.17131 12.8155C4.25127 12.6581 4.36855 12.5322 4.51514 12.4464C4.66174 12.3605 4.84565 12.3033 5.05888 12.3033C5.27211 12.3033 5.45602 12.3462 5.60262 12.4464C5.74921 12.5322 5.86649 12.6581 5.94645 12.8155C6.02641 12.9728 6.07972 13.1702 6.07972 13.3991C6.07972 13.6824 6.01308 13.9113 5.89314 14.0801C5.7732 14.2518 5.61594 14.3777 5.44269 14.4349C5.58929 14.6466 5.82651 14.804 6.14369 14.9041C6.46087 15.0043 6.77805 15.0472 7.09789 15.0472C7.54834 15.0472 7.94548 14.9185 8.30264 14.6638C8.6598 14.4092 8.92367 14.0258 9.09692 13.5279C9.27017 13.03 9.34747 12.4635 9.34747 11.8226C9.34747 11.1273 9.25418 10.5436 9.07027 10.0601C8.88369 9.56223 8.61982 9.19313 8.26266 8.9671C7.9055 8.72675 7.52169 8.6123 7.09789 8.6123C6.82069 8.6123 6.49019 8.74106 6.07972 8.9814L5.33341 9.36481V8.9671L8.70778 4.13734H4.03804V9.15308C4.03804 9.56509 4.118 9.90558 4.28859 10.1774C4.46184 10.4464 4.72571 10.5751 5.06954 10.5751C5.34674 10.5751 5.59995 10.475 5.8505 10.2775C6.10104 10.0773 6.31427 9.83691 6.49818 9.56795C6.52484 9.51073 6.55149 9.46781 6.57814 9.4535C6.61812 9.42489 6.64478 9.41059 6.68476 9.41059C6.75139 9.41059 6.81803 9.4392 6.90865 9.51073C6.98861 9.61087 7.02859 9.72246 7.02859 9.85122C7.02859 9.90844 7.00194 9.99428 6.98861 10.1059C6.80203 10.5751 6.53816 10.9299 6.19433 11.1702C5.8505 11.4106 5.48001 11.5393 5.06954 11.5393C4.05137 11.5393 3.36104 11.3276 2.9639 10.9013C2.58008 10.475 2.38284 9.89127 2.38284 9.16738V4.13734H0V3.19886H2.39617V1.06724L1.85244 0.483548V0H3.441L4.03538 0.32618V3.18455L10.2164 3.17024L10.8241 3.8226L7.04192 7.90272C7.26581 7.80258 7.50569 7.74535 7.75624 7.71674C8.16671 7.71674 8.63048 7.8598 9.13157 8.14306C9.64865 8.41202 10.0458 8.79542 10.323 9.27897C10.6002 9.76252 10.7868 10.2175 10.8667 10.6581C10.9467 11.0987 11 11.4821 11 11.8369C11 12.618 10.8401 13.3419 10.5362 14.0114C10.2324 14.6781 9.7686 15.1903 9.13424 15.5165C8.51054 15.8426 7.8362 16 7.10855 16Z" fill=""/>
</svg>
