<svg width="16" height="16" viewBox="0 0 16 16" fill="none" xmlns="http://www.w3.org/2000/svg">
<path d="M8 0.00317383C3.58214 0.00317383 0 3.58459 0 8.00156C0 12.4185 3.58214 15.9999 8 15.9999C12.4179 15.9999 16 12.4185 16 8.00156C16 3.58459 12.4179 0.00317383 8 0.00317383ZM11.8446 6.03231C11.85 6.11623 11.85 6.20371 11.85 6.28941C11.85 8.91031 9.85357 11.9293 6.20536 11.9293C5.08036 11.9293 4.0375 11.6026 3.15893 11.0402C3.31964 11.0581 3.47321 11.0652 3.6375 11.0652C4.56607 11.0652 5.41964 10.751 6.1 10.219C5.22857 10.2011 4.49643 9.6298 4.24643 8.84425C4.55179 8.88888 4.82679 8.88888 5.14107 8.80854C4.69237 8.7174 4.28906 8.47376 3.99967 8.11901C3.71028 7.76426 3.55265 7.32028 3.55357 6.8625V6.83751C3.81607 6.98569 4.125 7.07675 4.44821 7.08924C4.1765 6.9082 3.95368 6.66292 3.79948 6.37516C3.64529 6.08739 3.56451 5.76603 3.56429 5.43958C3.56429 5.07001 3.66071 4.73258 3.83393 4.43978C4.33197 5.05276 4.95345 5.55409 5.65797 5.91121C6.3625 6.26832 7.1343 6.47321 7.92321 6.51258C7.64286 5.16463 8.65 4.07378 9.86071 4.07378C10.4321 4.07378 10.9464 4.31302 11.3089 4.69866C11.7571 4.61474 12.1857 4.44692 12.5679 4.22197C12.4196 4.6808 12.1089 5.06822 11.6964 5.31282C12.0964 5.26997 12.4821 5.15928 12.8393 5.00395C12.5696 5.4003 12.2321 5.75201 11.8446 6.03231Z" fill="white"/>
</svg>
