<svg width="14" height="14" viewBox="0 0 14 14" fill="" xmlns="http://www.w3.org/2000/svg">
<path d="M6.99992 0.333496C3.31992 0.333496 0.333252 3.32016 0.333252 7.00016C0.333252 10.6802 3.31992 13.6668 6.99992 13.6668C10.6799 13.6668 13.6666 10.6802 13.6666 7.00016C13.6666 3.32016 10.6799 0.333496 6.99992 0.333496ZM6.99992 2.3335C8.10659 2.3335 8.99992 3.22683 8.99992 4.3335C8.99992 5.44016 8.10659 6.3335 6.99992 6.3335C5.89325 6.3335 4.99992 5.44016 4.99992 4.3335C4.99992 3.22683 5.89325 2.3335 6.99992 2.3335ZM6.99992 11.8002C6.20783 11.8002 5.42804 11.6041 4.7301 11.2296C4.03217 10.855 3.43777 10.3136 2.99992 9.6535C3.01992 8.32683 5.66659 7.60016 6.99992 7.60016C8.32659 7.60016 10.9799 8.32683 10.9999 9.6535C10.5621 10.3136 9.96767 10.855 9.26973 11.2296C8.5718 11.6041 7.79201 11.8002 6.99992 11.8002Z" fill=""/>
</svg>
