<?xml version="1.0" encoding="UTF-8"?>
<svg width="16px" height="16px" viewBox="0 0 16 16" version="1.1" xmlns="http://www.w3.org/2000/svg" xmlns:xlink="http://www.w3.org/1999/xlink">
    <!-- Generator: Sketch 56.3 (81716) - https://sketch.com -->
    <title>Group 17</title>
    <desc>Created with Sketch.</desc>
    <g id="Page-1" stroke="none" stroke-width="1" fill="none" fill-rule="evenodd">
        <g id="Nautilus-Cloud-Dashboard" transform="translate(-472.000000, -214.000000)" fill="#9B9B9B">
            <g id="Group-8" transform="translate(259.000000, 108.000000)">
                <g id="Group-17" transform="translate(213.000000, 106.000000)">
                    <path d="M11,10 L15,10 L15,1 L7,1 L7,4 L6,4 L6,1 C6,0.44771525 6.44771525,1.01453063e-16 7,0 L15,0 C15.5522847,-1.01453063e-16 16,0.44771525 16,1 L16,10 C16,10.5522847 15.5522847,11 15,11 L11,11 L11,10 Z" id="Combined-Shape"></path>
                    <path d="M1,5 L9,5 C9.55228475,5 10,5.44771525 10,6 L10,15 C10,15.5522847 9.55228475,16 9,16 L1,16 C0.44771525,16 6.76353751e-17,15.5522847 0,15 L0,6 C-6.76353751e-17,5.44771525 0.44771525,5 1,5 Z M1,6 L1,15 L9,15 L9,6 L1,6 Z" id="Combined-Shape"></path>
                </g>
            </g>
        </g>
    </g>
</svg>