<?xml version="1.0" encoding="UTF-8"?>
<svg width="12px" height="12px" viewBox="0 0 12 12" version="1.1" xmlns="http://www.w3.org/2000/svg" xmlns:xlink="http://www.w3.org/1999/xlink">
    <!-- Generator: Sketch 56.3 (81716) - https://sketch.com -->
    <title>noun_New Window_299638 Copy 2</title>
    <desc>Created with Sketch.</desc>
    <g id="Nautilus-Cloud-MVP" stroke="none" stroke-width="1" fill="none" fill-rule="evenodd">
        <g id="Nautilus-Cloud-Dashboard" transform="translate(-1171.000000, -677.000000)" fill="#000000" fill-rule="nonzero">
            <g id="Group-15" transform="translate(258.000000, 460.000000)">
                <g id="Group-12" transform="translate(3.000000, 88.000000)">
                    <g id="Group-7" transform="translate(768.000000, 0.000000)">
                        <g id="Group-4" transform="translate(0.000000, 126.000000)">
                            <g id="noun_New-Window_299638-Copy-2" transform="translate(142.000000, 3.000000)">
                                <path d="M9.86824842,1.2 L5.4846015,5.58364692 C5.22727143,5.84097699 5.22689877,6.25923855 5.4846448,6.51698458 C5.74186638,6.77420616 6.16026034,6.77475001 6.41798247,6.51702789 L10.8,2.13501036 L10.8,3.60047416 C10.8,3.93088195 11.0686291,4.2 11.4,4.2 C11.7306966,4.2 12,3.93158314 12,3.60047416 L12,0.599525835 C12,0.434400735 11.9329068,0.28458346 11.8244194,0.176015392 C11.7157669,0.0672615285 11.5659495,0 11.4004742,0 L8.39952583,0 C8.06911804,0 7.8,0.26862915 7.8,0.6 C7.8,0.93069657 8.06841685,1.2 8.39952583,1.2 L9.86824842,1.2 L9.86824842,1.2 Z M12,7.2 L12,4.3477726 L12,10.5044548 C12,11.3304216 11.4049181,12 10.6699405,12 L1.33005953,12 C0.59548794,12 0,11.3291147 0,10.5044548 L0,1.49554521 C0,0.6695784 0.59508186,0 1.33005953,0 L7.73497023,0 L4.8,0 C5.13137085,0 5.4,0.26862915 5.4,0.6 C5.4,0.93137085 5.13137085,1.2 4.8,1.2 L1.54166908,1.2 C1.35079308,1.2 1.2,1.37921051 1.2,1.60027785 L1.2,10.3997221 C1.2,10.6167995 1.35297047,10.8 1.54166908,10.8 L10.4583309,10.8 C10.6492069,10.8 10.8,10.6207895 10.8,10.3997221 L10.8,7.2 C10.8,6.86862915 11.0686291,6.6 11.4,6.6 C11.7313708,6.6 12,6.86862915 12,7.2 L12,7.2 Z" id="Shape"></path>
                            </g>
                        </g>
                    </g>
                </g>
            </g>
        </g>
    </g>
</svg>