<?xml version="1.0" encoding="UTF-8"?>
<svg width="15px" height="16px" viewBox="0 0 15 16" version="1.1" xmlns="http://www.w3.org/2000/svg" xmlns:xlink="http://www.w3.org/1999/xlink">
    <!-- Generator: Sketch 56.3 (81716) - https://sketch.com -->
    <title>Path</title>
    <desc>Created with Sketch.</desc>
    <g id="Nautilus-Cloud-MVP" stroke="none" stroke-width="1" fill="none" fill-rule="evenodd">
        <g id="Nautilus-Cloud-Dashboard" transform="translate(-672.000000, -343.000000)" fill="#9B9B9B" fill-rule="nonzero">
            <g id="Group-8" transform="translate(259.000000, 108.000000)">
                <g id="noun_redo_2509832" transform="translate(420.500000, 243.000000) scale(-1, 1) translate(-420.500000, -243.000000) translate(413.000000, 235.000000)">
                    <path d="M13.5162353,0.235294118 C13.1590588,0.235294118 12.8668235,0.527529412 12.8668235,0.884705882 L12.8668235,3.77458824 C11.5030588,2.18352941 9.48988235,1.20941176 7.31435294,1.20941176 C3.288,1.20941176 0.00847058824,4.48894118 0.00847058824,8.51529412 C0.00847058824,12.5416471 3.288,15.8211765 7.31435294,15.8211765 C9.19764706,15.8211765 10.9835294,15.1068235 12.3148235,13.8404706 C12.5745882,13.5807059 12.5745882,13.1910588 12.3472941,12.9312941 C12.0875294,12.6715294 11.6978824,12.6715294 11.4381176,12.8988235 C10.3341176,13.9703529 8.84047059,14.5223529 7.31435294,14.5223529 C4.00235294,14.5223529 1.30729412,11.8272941 1.30729412,8.51529412 C1.30729412,5.20329412 4.00235294,2.50823529 7.31435294,2.50823529 C9.45741176,2.50823529 11.4056471,3.64470588 12.4771765,5.43058824 L8.32094118,5.43058824 C7.96376471,5.43058824 7.67152941,5.72282353 7.67152941,6.08 C7.67152941,6.43717647 7.96376471,6.72941176 8.32094118,6.72941176 L13.5162353,6.72941176 C13.5487059,6.72941176 13.5487059,6.72941176 13.5811765,6.72941176 C13.5811765,6.72941176 13.6136471,6.72941176 13.6136471,6.72941176 C13.9058824,6.66447059 14.1656471,6.40470588 14.1656471,6.08 L14.1656471,0.884705882 C14.1656471,0.527529412 13.8734118,0.235294118 13.5162353,0.235294118 Z" id="Path"></path>
                </g>
            </g>
        </g>
    </g>
</svg>