<svg xmlns="http://www.w3.org/2000/svg" width="100" height="77" viewBox="0 0 100 77">
    <g fill="none">
        <g fill="#7DC0DE">
            <path d="M6.243 0h87.513c1.72 0 3.28.7 4.412 1.829C99.298 2.957 100 4.516 100 6.23v47.832c0 1.715-.702 3.274-1.832 4.402-1.131 1.129-2.692 1.829-4.412 1.829H6.243c-1.719 0-3.28-.7-4.41-1.829C.701 57.337 0 55.778 0 54.063V6.23C0 4.516.702 2.957 1.832 1.83 2.962.7 4.524-.001 6.243-.001zm87.513 4.159H6.243c-.569 0-1.087.234-1.465.61-.377.377-.611.895-.611 1.462v47.832c0 .567.234 1.085.611 1.462.378.376.896.61 1.465.61h87.513c.57 0 1.088-.234 1.466-.61.377-.377.611-.895.611-1.462V6.23c0-.567-.234-1.085-.611-1.462-.378-.376-.897-.61-1.466-.61z"/>
            <path d="M46.709 58.223c.004-1.144-.921-2.075-2.067-2.08-1.146-.004-2.08.92-2.084 2.064 0 .041.016 14.57-10.4 14.57-1.15 0-2.084.93-2.084 2.079 0 1.148.933 2.08 2.084 2.08 14.584 0 14.55-18.66 14.55-18.713zM57.441 58.207c-.004-1.144-.937-2.068-2.083-2.063-1.146.004-2.072.935-2.067 2.08 0 .053-.033 18.711 14.551 18.711 1.15 0 2.083-.93 2.083-2.08 0-1.147-.932-2.078-2.083-2.078-10.416 0-10.4-14.529-10.4-14.57z"/>
            <path d="M32.158 72.776c-1.15 0-2.084.931-2.084 2.08 0 1.148.933 2.08 2.084 2.08h35.684c1.151 0 2.084-.932 2.084-2.08 0-1.149-.933-2.08-2.084-2.08H32.158z"/>
        </g>
        <path fill="#7DC0DE" d="M43.957 38.5c0 .966-.78 1.75-1.74 1.75s-1.739-.784-1.739-1.75v-5.25h-6.956v5.25c0 .966-.779 1.75-1.74 1.75-.96 0-1.739-.784-1.739-1.75V26.25c0-3.866 3.115-7 6.957-7 3.842 0 6.957 3.134 6.957 7V38.5zM54.391 33.25h-3.478v5.25c0 .966-.779 1.75-1.74 1.75-.96 0-1.738-.784-1.738-1.75V21c0-.464.183-.91.509-1.238.326-.328.769-.512 1.23-.512h5.217c3.842 0 6.957 3.134 6.957 7s-3.115 7-6.957 7zM68.304 38.5c0 .966-.778 1.75-1.739 1.75-.96 0-1.739-.784-1.739-1.75V21c0-.966.779-1.75 1.74-1.75.96 0 1.738.784 1.738 1.75v17.5z"/>
        <path fill="#2D2C31" d="M54.391 22.75h-3.478v7h3.478c1.921 0 3.479-1.567 3.479-3.5s-1.558-3.5-3.479-3.5zM37 22.75c-1.92.002-3.476 1.568-3.478 3.5v3.5h6.956v-3.5c-.002-1.932-1.558-3.498-3.478-3.5z"/>
    </g>
</svg>
