<svg xmlns="http://www.w3.org/2000/svg" width="562" height="277" viewBox="0 0 562 277">
    <defs>
        <filter id="prefix__a" width="107.6%" height="115.8%" x="-3.8%" y="-7.9%" filterUnits="objectBoundingBox">
            <feOffset dy="5" in="SourceAlpha" result="shadowOffsetOuter1"/>
            <feGaussianBlur in="shadowOffsetOuter1" result="shadowBlurOuter1" stdDeviation="2.5"/>
            <feColorMatrix in="shadowBlurOuter1" result="shadowMatrixOuter1" values="0 0 0 0 0 0 0 0 0 0 0 0 0 0 0 0 0 0 0.5 0"/>
            <feMerge>
                <feMergeNode in="shadowMatrixOuter1"/>
                <feMergeNode in="SourceGraphic"/>
            </feMerge>
        </filter>
    </defs>
    <g fill="none" fill-rule="evenodd">
        <g filter="url(#prefix__a)" transform="translate(6 1)">
            <g stroke="#C5D2DE">
                <rect width="550" height="265" fill="#1E1E1E" stroke-width="2" rx="5"/>
                <path stroke-linecap="square" d="M0.5 0.544L548.496 0.544" transform="translate(1.004 31.403)"/>
            </g>
            <path fill="#2A292E" d="M5 1h540c2.21 0 4 1.79 4 4v31H1V5c0-2.21 1.79-4 4-4z"/>
            <g>
                <path fill="#2A292E" d="M4 0h540c2.21 0 4 1.79 4 4v31H0V4c0-2.21 1.79-4 4-4z" transform="translate(1 1)"/>
                <g fill="#C5D2DE" stroke="#C5D2DE" transform="translate(1 1) translate(12 13)">
                    <circle cx="5" cy="5" r="5" transform="translate(20)"/>
                    <circle cx="5" cy="5" r="5"/>
                    <circle cx="5" cy="5" r="5" transform="translate(40)"/>
                </g>
            </g>
        </g>
        <text fill="#C5D2DE" font-family="Courier" font-size="12" letter-spacing=".514" transform="translate(6 1)">
            <tspan x="18" y="74">curl --location --request GET &apos;https://conseil-prod.cryptonomic-</tspan> <tspan x="18" y="88">infra.tech/v2/data/tezos/mainnet/blocks/head&apos; \</tspan> <tspan x="18" y="102">--header &apos;apiKey: &lt;your-api-key&gt;&apos; \</tspan> <tspan x="18" y="116">--header &apos;Content-Type: application/json&apos;&apos;</tspan>
        </text>
    </g>
</svg>
